2014034_C4_04_grf
version=1
nRows=24
nColumns=19
inDegrees=no
endheader
time	ground_force_1_vx	ground_force_1_vy	ground_force_1_vz	ground_force_1_px	ground_force_1_py	ground_force_1_pz	ground_force_1_mx	ground_force_1_my	ground_force_1_mz	ground_force_2_vx	ground_force_2_vy	ground_force_2_vz	ground_force_2_px	ground_force_2_py	ground_force_2_pz	ground_force_2_mx	ground_force_2_my	ground_force_2_mz
      0.90000000	      0.00000000	      0.00000000	      0.00000000	      0.00000000	      0.00000000	      0.00000000	      0.00000000	      0.00000000	      0.00000000	    -45.33740506	    271.67364955	     -6.72431663	      0.97708114	     -0.00200000	     -0.16425111	      0.00000000	     -1.75736557	      0.00000000
      0.90100000	      0.00000000	      0.00000000	      0.00000000	      0.00000000	      0.00000000	      0.00000000	      0.00000000	      0.00000000	      0.00000000	    -44.91113871	    268.04651693	     -6.44780770	      0.97718142	     -0.00200000	     -0.16428689	      0.00000000	     -1.74573459	      0.00000000
      0.90200000	      0.00000000	      0.00000000	      0.00000000	      0.00000000	      0.00000000	      0.00000000	      0.00000000	      0.00000000	      0.00000000	    -44.48655993	    264.43203166	     -6.17069080	      0.97728134	     -0.00200000	     -0.16432353	      0.00000000	     -1.73405636	      0.00000000
      0.90300000	      0.00000000	      0.00000000	      0.00000000	      0.00000000	      0.00000000	      0.00000000	      0.00000000	      0.00000000	      0.00000000	    -44.06407289	    260.83358377	     -5.89302871	      0.97738076	     -0.00200000	     -0.16436124	      0.00000000	     -1.72233056	      0.00000000
      0.90400000	      0.00000000	      0.00000000	      0.00000000	      0.00000000	      0.00000000	      0.00000000	      0.00000000	      0.00000000	      0.00000000	    -43.64325851	    257.24812225	     -5.61510921	      0.97747972	     -0.00200000	     -0.16439979	      0.00000000	     -1.71057395	      0.00000000
      0.90500000	      0.00000000	      0.00000000	      0.00000000	      0.00000000	      0.00000000	      0.00000000	      0.00000000	      0.00000000	      0.00000000	    -43.22452471	    253.67907621	     -5.33709675	      0.97757798	     -0.00200000	     -0.16443934	      0.00000000	     -1.69878482	      0.00000000
      0.90600000	      0.00000000	      0.00000000	      0.00000000	      0.00000000	      0.00000000	      0.00000000	      0.00000000	      0.00000000	      0.00000000	    -42.80744866	    250.12327731	     -5.05919755	      0.97767560	     -0.00200000	     -0.16447965	      0.00000000	     -1.68697028	      0.00000000
      0.90700000	      0.00000000	      0.00000000	      0.00000000	      0.00000000	      0.00000000	      0.00000000	      0.00000000	      0.00000000	      0.00000000	    -42.39244200	    246.58419378	     -4.78168521	      0.97777230	     -0.00200000	     -0.16452086	      0.00000000	     -1.67512541	      0.00000000
      0.90800000	      0.00000000	      0.00000000	      0.00000000	      0.00000000	      0.00000000	      0.00000000	      0.00000000	      0.00000000	      0.00000000	    -41.97908565	    243.05851385	     -4.50468250	      0.97786821	     -0.00200000	     -0.16456274	      0.00000000	     -1.66325481	      0.00000000
      0.90900000	      0.00000000	      0.00000000	      0.00000000	      0.00000000	      0.00000000	      0.00000000	      0.00000000	      0.00000000	      0.00000000	    -41.56778567	    239.54970576	     -4.22856696	      0.97796298	     -0.00200000	     -0.16460543	      0.00000000	     -1.65135236	      0.00000000
      0.91000000	      0.00000000	      0.00000000	      0.00000000	      0.00000000	      0.00000000	      0.00000000	      0.00000000	      0.00000000	      0.00000000	    -41.15813598	    236.05445772	     -3.95335779	      0.97805677	     -0.00200000	     -0.16464875	      0.00000000	     -1.63942353	      0.00000000
      0.91100000	      0.00000000	      0.00000000	      0.00000000	      0.00000000	      0.00000000	      0.00000000	      0.00000000	      0.00000000	      0.00000000	    -40.75053707	    232.57615976	     -3.67951486	      0.97814929	     -0.00200000	     -0.16469282	     -0.00000000	     -1.62746152	      0.00000000
      0.91200000	      0.00000000	      0.00000000	      0.00000000	      0.00000000	      0.00000000	      0.00000000	      0.00000000	      0.00000000	      0.00000000	    -40.34456611	    229.11142185	     -3.40694077	      0.97824078	     -0.00200000	     -0.16473747	      0.00000000	     -1.61547364	      0.00000000
      0.91300000	      0.00000000	      0.00000000	      0.00000000	      0.00000000	      0.00000000	      0.00000000	      0.00000000	      0.00000000	      0.00000000	    -39.94060867	    225.66359490	     -3.13615985	      0.97833099	     -0.00200000	     -0.16478282	      0.00000000	     -1.60345376	      0.00000000
      0.91400000	      0.00000000	      0.00000000	      0.00000000	      0.00000000	      0.00000000	      0.00000000	      0.00000000	      0.00000000	      0.00000000	    -39.53825682	    222.22930193	     -2.86697038	      0.97842019	     -0.00200000	     -0.16482871	      0.00000000	     -1.59140879	      0.00000000
      0.91500000	      0.00000000	      0.00000000	      0.00000000	      0.00000000	      0.00000000	      0.00000000	      0.00000000	      0.00000000	      0.00000000	    -39.13789801	    218.81188732	     -2.59995442	      0.97850816	     -0.00200000	     -0.16487529	      0.00000000	     -1.57933658	      0.00000000
      0.91600000	      0.00000000	      0.00000000	      0.00000000	      0.00000000	      0.00000000	      0.00000000	      0.00000000	      0.00000000	      0.00000000	    -38.73911873	    215.40800668	     -2.33482011	      0.97859515	     -0.00200000	     -0.16492247	      0.00000000	     -1.56724818	      0.00000000
      0.91700000	      0.00000000	      0.00000000	      0.00000000	      0.00000000	      0.00000000	      0.00000000	      0.00000000	      0.00000000	      0.00000000	    -38.34229521	    212.02101093	     -2.07221266	      0.97868098	     -0.00200000	     -0.16497041	     -0.00000000	     -1.55514983	      0.00000000
      0.91800000	      0.00000000	      0.00000000	      0.00000000	      0.00000000	      0.00000000	      0.00000000	      0.00000000	      0.00000000	      0.00000000	    -37.94701770	    208.64747092	     -1.81176160	      0.97876595	     -0.00200000	     -0.16501897	      0.00000000	     -1.54305042	      0.00000000
      0.91900000	      0.00000000	      0.00000000	      0.00000000	      0.00000000	      0.00000000	      0.00000000	      0.00000000	      0.00000000	      0.00000000	    -37.55365312	    205.29072452	     -1.55416671	      0.97884993	     -0.00200000	     -0.16506829	      0.00000000	     -1.53095588	      0.00000000
      0.92000000	      0.00000000	      0.00000000	      0.00000000	      0.00000000	      0.00000000	      0.00000000	      0.00000000	      0.00000000	      0.00000000	    -37.16179729	    201.94732957	     -1.29897883	      0.97893324	     -0.00200000	     -0.16511819	     -0.00000000	     -1.51887027	      0.00000000
      0.92100000	      0.00000000	      0.00000000	      0.00000000	      0.00000000	      0.00000000	      0.00000000	      0.00000000	      0.00000000	      0.00000000	    -36.77179664	    198.62055220	     -1.04694488	      0.97901585	     -0.00200000	     -0.16516878	     -0.00000000	     -1.50680238	      0.00000000
      0.92200000	      0.00000000	      0.00000000	      0.00000000	      0.00000000	      0.00000000	      0.00000000	      0.00000000	      0.00000000	      0.00000000	    -36.38326004	    195.30698285	     -0.79754498	      0.97909801	     -0.00200000	     -0.16521987	      0.00000000	     -1.49475217	      0.00000000
      0.92300000	      0.00000000	      0.00000000	      0.00000000	      0.00000000	      0.00000000	      0.00000000	      0.00000000	      0.00000000	      0.00000000	    -35.99652834	    192.00982247	     -0.55156793	      0.97917975	     -0.00200000	     -0.16527150	      0.00000000	     -1.48272870	      0.00000000
